Coordinates
version=1
nRows=27
nColumns=12
inDegrees=yes

Units are S.I. units (second, meters, Newtons, ...)
Angles are in degrees

endheader
time	SC_y	SC_z	SC_x	AC_y	AC_z	AC_x	GH_y	GH_z	GH_yy	EL_x	PS_y
       0.0              -40.96          6.778          54.06           38.8         -2.983          3.766         -118.0         -14.34          105.1          121.3          41.86
   0.03689              -40.96          6.778          54.05           38.8         -2.983          3.764         -118.0         -14.34          105.1          121.3          41.86
   0.07378              -40.96          6.778          54.04          38.81         -2.984          3.762         -118.0         -14.34          105.1          121.3          41.86
    0.1107              -40.95          6.779          54.03          38.81         -2.984           3.76         -118.0         -14.33          105.1          121.3          41.86
    0.1476              -40.95          6.779          54.02          38.82         -2.985          3.758         -118.0         -14.33          105.1          121.3          41.86
    0.1845              -40.94          6.779          54.01          38.82         -2.986          3.755         -118.0         -14.33          105.1          121.3          41.86
    0.2213              -40.93          6.779           54.0          38.83         -2.986          3.753         -118.0         -14.32          105.1          121.3          41.86
    0.2582              -40.93           6.78          53.99          38.83         -2.987           3.75         -118.0         -14.32          105.1          121.3          41.86
    0.2951              -40.92           6.78          53.98          38.84         -2.988          3.748         -118.0         -14.31          105.1          121.3          41.86
     0.332              -40.91          6.781          53.97          38.84         -2.988          3.745         -118.0         -14.31          105.2          121.3          41.86
    0.3689              -40.91          6.781          53.95          38.85         -2.989          3.741         -118.0          -14.3          105.2          121.3          41.86
    0.4058               -40.9          6.781          53.94          38.86          -2.99          3.738         -117.9         -14.29          105.2          121.3          41.85
    0.4427              -40.89          6.782          53.92          38.87         -2.991          3.734         -117.9         -14.29          105.2          121.3          41.85
    0.4796              -40.88          6.782           53.9          38.87         -2.992           3.73         -117.9         -14.28          105.2          121.3          41.85
    0.5165              -40.87          6.783          53.89          38.88         -2.994          3.726         -117.9         -14.27          105.2          121.3          41.85
    0.5534              -40.86          6.783          53.87          38.89         -2.995          3.721         -117.9         -14.26          105.2          121.3          41.85
    0.5902              -40.84          6.784          53.84           38.9         -2.996          3.716         -117.9         -14.25          105.2          121.3          41.85
    0.6271              -40.83          6.785          53.82          38.92         -2.998           3.71         -117.9         -14.24          105.3          121.3          41.85
     0.664              -40.82          6.786          53.79          38.93         -2.999          3.704         -117.8         -14.23          105.3          121.3          41.84
    0.7009               -40.8          6.786          53.76          38.94         -3.001          3.697         -117.8         -14.22          105.3          121.3          41.84
    0.7378              -40.78          6.787          53.73          38.96         -3.003          3.689         -117.8          -14.2          105.3          121.3          41.84
    0.7747              -40.76          6.788           53.7          38.97         -3.005          3.681         -117.8         -14.19          105.4          121.3          41.84
    0.8116              -40.74          6.789          53.66          38.99         -3.008          3.672         -117.7         -14.17          105.4          121.4          41.84
    0.8485              -40.72          6.791          53.62          39.01          -3.01          3.662         -117.7         -14.15          105.4          121.4          41.83
    0.8854              -40.69          6.792          53.57          39.04         -3.013          3.651         -117.7         -14.13          105.4          121.4          41.83
    0.9223              -40.66          6.793          53.51          39.06         -3.017          3.639         -117.6         -14.11          105.5          121.4          41.83
    0.9591              -40.63          6.795          53.46          39.09          -3.02          3.625         -117.6         -14.08          105.5          121.4          41.82
